<mxfile host="app.diagrams.net" modified="2021-02-03T18:13:29.141Z" agent="5.0 (Windows NT 10.0; Win64; x64) AppleWebKit/537.36 (KHTML, like Gecko) Chrome/88.0.4324.104 Safari/537.36" etag="CyjooUVQXzsAs30E3pX3" version="14.2.9" type="github">
  <diagram name="Page-1" id="efa7a0a1-bf9b-a30e-e6df-94a7791c09e9">
    <mxGraphModel dx="1038" dy="548" grid="1" gridSize="10" guides="1" tooltips="1" connect="1" arrows="1" fold="1" page="1" pageScale="1" pageWidth="826" pageHeight="1169" background="#ffffff" math="0" shadow="0">
      <root>
        <mxCell id="0" />
        <mxCell id="1" parent="0" />
        <mxCell id="whxNxYyjvuEntSVM27L4-114" value="" style="rounded=0;whiteSpace=wrap;html=1;" parent="1" vertex="1">
          <mxGeometry x="280" y="280" width="240" height="100" as="geometry" />
        </mxCell>
        <mxCell id="whxNxYyjvuEntSVM27L4-192" style="edgeStyle=orthogonalEdgeStyle;rounded=0;orthogonalLoop=1;jettySize=auto;html=1;" parent="1" source="whxNxYyjvuEntSVM27L4-116" edge="1">
          <mxGeometry relative="1" as="geometry">
            <mxPoint x="190" y="340" as="targetPoint" />
          </mxGeometry>
        </mxCell>
        <mxCell id="whxNxYyjvuEntSVM27L4-116" value="&lt;h1&gt;Сервер&lt;/h1&gt;&lt;div&gt;Принимает данные и записывает в базу&lt;/div&gt;" style="text;html=1;strokeColor=none;fillColor=none;spacing=5;spacingTop=-20;whiteSpace=wrap;overflow=hidden;rounded=0;" parent="1" vertex="1">
          <mxGeometry x="280" y="280" width="190" height="120" as="geometry" />
        </mxCell>
        <mxCell id="whxNxYyjvuEntSVM27L4-189" style="edgeStyle=orthogonalEdgeStyle;rounded=0;orthogonalLoop=1;jettySize=auto;html=1;entryX=0.5;entryY=0;entryDx=0;entryDy=0;" parent="1" source="whxNxYyjvuEntSVM27L4-118" target="whxNxYyjvuEntSVM27L4-123" edge="1">
          <mxGeometry relative="1" as="geometry" />
        </mxCell>
        <mxCell id="whxNxYyjvuEntSVM27L4-118" value="&lt;font style=&quot;font-size: 16px&quot;&gt;&lt;br&gt;&lt;/font&gt;&lt;h1 style=&quot;color: rgb(0 , 0 , 0) ; font-family: &amp;#34;helvetica&amp;#34; ; font-style: normal ; letter-spacing: normal ; text-indent: 0px ; text-transform: none ; word-spacing: 0px ; background-color: rgb(248 , 249 , 250) ; font-size: 16px&quot;&gt;&lt;font style=&quot;font-size: 16px&quot;&gt;База данных&lt;/font&gt;&lt;/h1&gt;" style="shape=datastore;whiteSpace=wrap;html=1;align=center;" parent="1" vertex="1">
          <mxGeometry x="15" y="13" width="150" height="90" as="geometry" />
        </mxCell>
        <mxCell id="whxNxYyjvuEntSVM27L4-123" value="Table (Ceh1, Ceh3)" style="shape=table;html=1;whiteSpace=wrap;startSize=30;container=1;collapsible=0;childLayout=tableLayout;fixedRows=1;rowLines=0;fontStyle=1;align=center;" parent="1" vertex="1">
          <mxGeometry y="130" width="180" height="450" as="geometry" />
        </mxCell>
        <mxCell id="whxNxYyjvuEntSVM27L4-124" value="" style="shape=partialRectangle;html=1;whiteSpace=wrap;collapsible=0;dropTarget=0;pointerEvents=0;fillColor=none;top=0;left=0;bottom=1;right=0;points=[[0,0.5],[1,0.5]];portConstraint=eastwest;" parent="whxNxYyjvuEntSVM27L4-123" vertex="1">
          <mxGeometry y="30" width="180" height="30" as="geometry" />
        </mxCell>
        <mxCell id="whxNxYyjvuEntSVM27L4-125" value="1" style="shape=partialRectangle;html=1;whiteSpace=wrap;connectable=0;fillColor=none;top=0;left=0;bottom=0;right=0;overflow=hidden;" parent="whxNxYyjvuEntSVM27L4-124" vertex="1">
          <mxGeometry width="40" height="30" as="geometry" />
        </mxCell>
        <mxCell id="whxNxYyjvuEntSVM27L4-126" value="id" style="shape=partialRectangle;html=1;whiteSpace=wrap;connectable=0;fillColor=none;top=0;left=0;bottom=0;right=0;align=left;spacingLeft=6;overflow=hidden;" parent="whxNxYyjvuEntSVM27L4-124" vertex="1">
          <mxGeometry x="40" width="140" height="30" as="geometry" />
        </mxCell>
        <mxCell id="whxNxYyjvuEntSVM27L4-127" value="" style="shape=partialRectangle;html=1;whiteSpace=wrap;collapsible=0;dropTarget=0;pointerEvents=0;fillColor=none;top=0;left=0;bottom=0;right=0;points=[[0,0.5],[1,0.5]];portConstraint=eastwest;" parent="whxNxYyjvuEntSVM27L4-123" vertex="1">
          <mxGeometry y="60" width="180" height="30" as="geometry" />
        </mxCell>
        <mxCell id="whxNxYyjvuEntSVM27L4-128" value="2" style="shape=partialRectangle;html=1;whiteSpace=wrap;connectable=0;fillColor=none;top=0;left=0;bottom=0;right=0;overflow=hidden;" parent="whxNxYyjvuEntSVM27L4-127" vertex="1">
          <mxGeometry width="40" height="30" as="geometry" />
        </mxCell>
        <mxCell id="whxNxYyjvuEntSVM27L4-129" value="user_id" style="shape=partialRectangle;html=1;whiteSpace=wrap;connectable=0;fillColor=none;top=0;left=0;bottom=0;right=0;align=left;spacingLeft=6;overflow=hidden;" parent="whxNxYyjvuEntSVM27L4-127" vertex="1">
          <mxGeometry x="40" width="140" height="30" as="geometry" />
        </mxCell>
        <mxCell id="whxNxYyjvuEntSVM27L4-130" value="" style="shape=partialRectangle;html=1;whiteSpace=wrap;collapsible=0;dropTarget=0;pointerEvents=0;fillColor=none;top=0;left=0;bottom=0;right=0;points=[[0,0.5],[1,0.5]];portConstraint=eastwest;" parent="whxNxYyjvuEntSVM27L4-123" vertex="1">
          <mxGeometry y="90" width="180" height="30" as="geometry" />
        </mxCell>
        <mxCell id="whxNxYyjvuEntSVM27L4-131" value="3" style="shape=partialRectangle;html=1;whiteSpace=wrap;connectable=0;fillColor=none;top=0;left=0;bottom=0;right=0;overflow=hidden;" parent="whxNxYyjvuEntSVM27L4-130" vertex="1">
          <mxGeometry width="40" height="30" as="geometry" />
        </mxCell>
        <mxCell id="whxNxYyjvuEntSVM27L4-132" value="first_name" style="shape=partialRectangle;html=1;whiteSpace=wrap;connectable=0;fillColor=none;top=0;left=0;bottom=0;right=0;align=left;spacingLeft=6;overflow=hidden;" parent="whxNxYyjvuEntSVM27L4-130" vertex="1">
          <mxGeometry x="40" width="140" height="30" as="geometry" />
        </mxCell>
        <mxCell id="whxNxYyjvuEntSVM27L4-133" value="" style="shape=partialRectangle;html=1;whiteSpace=wrap;collapsible=0;dropTarget=0;pointerEvents=0;fillColor=none;top=0;left=0;bottom=0;right=0;points=[[0,0.5],[1,0.5]];portConstraint=eastwest;" parent="whxNxYyjvuEntSVM27L4-123" vertex="1">
          <mxGeometry y="120" width="180" height="30" as="geometry" />
        </mxCell>
        <mxCell id="whxNxYyjvuEntSVM27L4-134" value="4" style="shape=partialRectangle;html=1;whiteSpace=wrap;connectable=0;fillColor=none;top=0;left=0;bottom=0;right=0;overflow=hidden;" parent="whxNxYyjvuEntSVM27L4-133" vertex="1">
          <mxGeometry width="40" height="30" as="geometry" />
        </mxCell>
        <mxCell id="whxNxYyjvuEntSVM27L4-135" value="last_name" style="shape=partialRectangle;html=1;whiteSpace=wrap;connectable=0;fillColor=none;top=0;left=0;bottom=0;right=0;align=left;spacingLeft=6;overflow=hidden;" parent="whxNxYyjvuEntSVM27L4-133" vertex="1">
          <mxGeometry x="40" width="140" height="30" as="geometry" />
        </mxCell>
        <mxCell id="whxNxYyjvuEntSVM27L4-136" value="" style="shape=partialRectangle;html=1;whiteSpace=wrap;collapsible=0;dropTarget=0;pointerEvents=0;fillColor=none;top=0;left=0;bottom=0;right=0;points=[[0,0.5],[1,0.5]];portConstraint=eastwest;" parent="whxNxYyjvuEntSVM27L4-123" vertex="1">
          <mxGeometry y="150" width="180" height="30" as="geometry" />
        </mxCell>
        <mxCell id="whxNxYyjvuEntSVM27L4-137" value="5" style="shape=partialRectangle;html=1;whiteSpace=wrap;connectable=0;fillColor=none;top=0;left=0;bottom=0;right=0;overflow=hidden;" parent="whxNxYyjvuEntSVM27L4-136" vertex="1">
          <mxGeometry width="40" height="30" as="geometry" />
        </mxCell>
        <mxCell id="whxNxYyjvuEntSVM27L4-138" value="smena" style="shape=partialRectangle;html=1;whiteSpace=wrap;connectable=0;fillColor=none;top=0;left=0;bottom=0;right=0;align=left;spacingLeft=6;overflow=hidden;" parent="whxNxYyjvuEntSVM27L4-136" vertex="1">
          <mxGeometry x="40" width="140" height="30" as="geometry" />
        </mxCell>
        <mxCell id="whxNxYyjvuEntSVM27L4-139" value="" style="shape=partialRectangle;html=1;whiteSpace=wrap;collapsible=0;dropTarget=0;pointerEvents=0;fillColor=none;top=0;left=0;bottom=0;right=0;points=[[0,0.5],[1,0.5]];portConstraint=eastwest;" parent="whxNxYyjvuEntSVM27L4-123" vertex="1">
          <mxGeometry y="180" width="180" height="30" as="geometry" />
        </mxCell>
        <mxCell id="whxNxYyjvuEntSVM27L4-140" value="6" style="shape=partialRectangle;html=1;whiteSpace=wrap;connectable=0;fillColor=none;top=0;left=0;bottom=0;right=0;overflow=hidden;" parent="whxNxYyjvuEntSVM27L4-139" vertex="1">
          <mxGeometry width="40" height="30" as="geometry" />
        </mxCell>
        <mxCell id="whxNxYyjvuEntSVM27L4-141" value="oborudovanie" style="shape=partialRectangle;html=1;whiteSpace=wrap;connectable=0;fillColor=none;top=0;left=0;bottom=0;right=0;align=left;spacingLeft=6;overflow=hidden;" parent="whxNxYyjvuEntSVM27L4-139" vertex="1">
          <mxGeometry x="40" width="140" height="30" as="geometry" />
        </mxCell>
        <mxCell id="whxNxYyjvuEntSVM27L4-142" value="" style="shape=partialRectangle;html=1;whiteSpace=wrap;collapsible=0;dropTarget=0;pointerEvents=0;fillColor=none;top=0;left=0;bottom=0;right=0;points=[[0,0.5],[1,0.5]];portConstraint=eastwest;" parent="whxNxYyjvuEntSVM27L4-123" vertex="1">
          <mxGeometry y="210" width="180" height="30" as="geometry" />
        </mxCell>
        <mxCell id="whxNxYyjvuEntSVM27L4-143" value="7" style="shape=partialRectangle;html=1;whiteSpace=wrap;connectable=0;fillColor=none;top=0;left=0;bottom=0;right=0;overflow=hidden;" parent="whxNxYyjvuEntSVM27L4-142" vertex="1">
          <mxGeometry width="40" height="30" as="geometry" />
        </mxCell>
        <mxCell id="whxNxYyjvuEntSVM27L4-144" value="preparat" style="shape=partialRectangle;html=1;whiteSpace=wrap;connectable=0;fillColor=none;top=0;left=0;bottom=0;right=0;align=left;spacingLeft=6;overflow=hidden;" parent="whxNxYyjvuEntSVM27L4-142" vertex="1">
          <mxGeometry x="40" width="140" height="30" as="geometry" />
        </mxCell>
        <mxCell id="whxNxYyjvuEntSVM27L4-145" value="" style="shape=partialRectangle;html=1;whiteSpace=wrap;collapsible=0;dropTarget=0;pointerEvents=0;fillColor=none;top=0;left=0;bottom=0;right=0;points=[[0,0.5],[1,0.5]];portConstraint=eastwest;" parent="whxNxYyjvuEntSVM27L4-123" vertex="1">
          <mxGeometry y="240" width="180" height="40" as="geometry" />
        </mxCell>
        <mxCell id="whxNxYyjvuEntSVM27L4-146" value="8" style="shape=partialRectangle;html=1;whiteSpace=wrap;connectable=0;fillColor=none;top=0;left=0;bottom=0;right=0;overflow=hidden;" parent="whxNxYyjvuEntSVM27L4-145" vertex="1">
          <mxGeometry width="40" height="40" as="geometry" />
        </mxCell>
        <mxCell id="whxNxYyjvuEntSVM27L4-147" value="work time (07:00-15:45 или 7.00-15.45)" style="shape=partialRectangle;html=1;whiteSpace=wrap;connectable=0;fillColor=none;top=0;left=0;bottom=0;right=0;align=left;spacingLeft=6;overflow=hidden;" parent="whxNxYyjvuEntSVM27L4-145" vertex="1">
          <mxGeometry x="40" width="140" height="40" as="geometry" />
        </mxCell>
        <mxCell id="whxNxYyjvuEntSVM27L4-148" value="" style="shape=partialRectangle;html=1;whiteSpace=wrap;collapsible=0;dropTarget=0;pointerEvents=0;fillColor=none;top=0;left=0;bottom=0;right=0;points=[[0,0.5],[1,0.5]];portConstraint=eastwest;" parent="whxNxYyjvuEntSVM27L4-123" vertex="1">
          <mxGeometry y="280" width="180" height="30" as="geometry" />
        </mxCell>
        <mxCell id="whxNxYyjvuEntSVM27L4-149" value="9" style="shape=partialRectangle;html=1;whiteSpace=wrap;connectable=0;fillColor=none;top=0;left=0;bottom=0;right=0;overflow=hidden;" parent="whxNxYyjvuEntSVM27L4-148" vertex="1">
          <mxGeometry width="40" height="30" as="geometry" />
        </mxCell>
        <mxCell id="whxNxYyjvuEntSVM27L4-150" value="id_prostoya(auto)" style="shape=partialRectangle;html=1;whiteSpace=wrap;connectable=0;fillColor=none;top=0;left=0;bottom=0;right=0;align=left;spacingLeft=6;overflow=hidden;" parent="whxNxYyjvuEntSVM27L4-148" vertex="1">
          <mxGeometry x="40" width="140" height="30" as="geometry" />
        </mxCell>
        <mxCell id="whxNxYyjvuEntSVM27L4-151" value="" style="shape=partialRectangle;html=1;whiteSpace=wrap;collapsible=0;dropTarget=0;pointerEvents=0;fillColor=none;top=0;left=0;bottom=0;right=0;points=[[0,0.5],[1,0.5]];portConstraint=eastwest;" parent="whxNxYyjvuEntSVM27L4-123" vertex="1">
          <mxGeometry y="310" width="180" height="30" as="geometry" />
        </mxCell>
        <mxCell id="whxNxYyjvuEntSVM27L4-152" value="10" style="shape=partialRectangle;html=1;whiteSpace=wrap;connectable=0;fillColor=none;top=0;left=0;bottom=0;right=0;overflow=hidden;" parent="whxNxYyjvuEntSVM27L4-151" vertex="1">
          <mxGeometry width="40" height="30" as="geometry" />
        </mxCell>
        <mxCell id="whxNxYyjvuEntSVM27L4-153" value="" style="shape=partialRectangle;html=1;whiteSpace=wrap;connectable=0;fillColor=none;top=0;left=0;bottom=0;right=0;align=left;spacingLeft=6;overflow=hidden;" parent="whxNxYyjvuEntSVM27L4-151" vertex="1">
          <mxGeometry x="40" width="140" height="30" as="geometry" />
        </mxCell>
        <mxCell id="whxNxYyjvuEntSVM27L4-154" value="" style="shape=partialRectangle;html=1;whiteSpace=wrap;collapsible=0;dropTarget=0;pointerEvents=0;fillColor=none;top=0;left=0;bottom=0;right=0;points=[[0,0.5],[1,0.5]];portConstraint=eastwest;" parent="whxNxYyjvuEntSVM27L4-123" vertex="1">
          <mxGeometry y="340" width="180" height="30" as="geometry" />
        </mxCell>
        <mxCell id="whxNxYyjvuEntSVM27L4-155" value="11" style="shape=partialRectangle;html=1;whiteSpace=wrap;connectable=0;fillColor=none;top=0;left=0;bottom=0;right=0;overflow=hidden;" parent="whxNxYyjvuEntSVM27L4-154" vertex="1">
          <mxGeometry width="40" height="30" as="geometry" />
        </mxCell>
        <mxCell id="whxNxYyjvuEntSVM27L4-156" value="" style="shape=partialRectangle;html=1;whiteSpace=wrap;connectable=0;fillColor=none;top=0;left=0;bottom=0;right=0;align=left;spacingLeft=6;overflow=hidden;" parent="whxNxYyjvuEntSVM27L4-154" vertex="1">
          <mxGeometry x="40" width="140" height="30" as="geometry" />
        </mxCell>
        <mxCell id="whxNxYyjvuEntSVM27L4-157" value="" style="shape=partialRectangle;html=1;whiteSpace=wrap;collapsible=0;dropTarget=0;pointerEvents=0;fillColor=none;top=0;left=0;bottom=0;right=0;points=[[0,0.5],[1,0.5]];portConstraint=eastwest;" parent="whxNxYyjvuEntSVM27L4-123" vertex="1">
          <mxGeometry y="370" width="180" height="30" as="geometry" />
        </mxCell>
        <mxCell id="whxNxYyjvuEntSVM27L4-158" value="12" style="shape=partialRectangle;html=1;whiteSpace=wrap;connectable=0;fillColor=none;top=0;left=0;bottom=0;right=0;overflow=hidden;" parent="whxNxYyjvuEntSVM27L4-157" vertex="1">
          <mxGeometry width="40" height="30" as="geometry" />
        </mxCell>
        <mxCell id="whxNxYyjvuEntSVM27L4-159" value="" style="shape=partialRectangle;html=1;whiteSpace=wrap;connectable=0;fillColor=none;top=0;left=0;bottom=0;right=0;align=left;spacingLeft=6;overflow=hidden;" parent="whxNxYyjvuEntSVM27L4-157" vertex="1">
          <mxGeometry x="40" width="140" height="30" as="geometry" />
        </mxCell>
        <mxCell id="whxNxYyjvuEntSVM27L4-160" value="" style="shape=partialRectangle;html=1;whiteSpace=wrap;collapsible=0;dropTarget=0;pointerEvents=0;fillColor=none;top=0;left=0;bottom=0;right=0;points=[[0,0.5],[1,0.5]];portConstraint=eastwest;" parent="whxNxYyjvuEntSVM27L4-123" vertex="1">
          <mxGeometry y="400" width="180" height="30" as="geometry" />
        </mxCell>
        <mxCell id="whxNxYyjvuEntSVM27L4-161" value="13" style="shape=partialRectangle;html=1;whiteSpace=wrap;connectable=0;fillColor=none;top=0;left=0;bottom=0;right=0;overflow=hidden;" parent="whxNxYyjvuEntSVM27L4-160" vertex="1">
          <mxGeometry width="40" height="30" as="geometry" />
        </mxCell>
        <mxCell id="whxNxYyjvuEntSVM27L4-162" value="" style="shape=partialRectangle;html=1;whiteSpace=wrap;connectable=0;fillColor=none;top=0;left=0;bottom=0;right=0;align=left;spacingLeft=6;overflow=hidden;" parent="whxNxYyjvuEntSVM27L4-160" vertex="1">
          <mxGeometry x="40" width="140" height="30" as="geometry" />
        </mxCell>
        <mxCell id="whxNxYyjvuEntSVM27L4-179" value="" style="shape=partialRectangle;html=1;whiteSpace=wrap;collapsible=0;dropTarget=0;pointerEvents=0;fillColor=none;top=0;left=0;bottom=1;right=0;points=[[0,0.5],[1,0.5]];portConstraint=eastwest;" parent="whxNxYyjvuEntSVM27L4-123" vertex="1">
          <mxGeometry y="430" width="180" height="20" as="geometry" />
        </mxCell>
        <mxCell id="whxNxYyjvuEntSVM27L4-180" value="" style="shape=partialRectangle;html=1;whiteSpace=wrap;connectable=0;fillColor=none;top=0;left=0;bottom=0;right=0;overflow=hidden;" parent="whxNxYyjvuEntSVM27L4-179" vertex="1">
          <mxGeometry width="40" height="20" as="geometry" />
        </mxCell>
        <mxCell id="whxNxYyjvuEntSVM27L4-181" value="" style="shape=partialRectangle;html=1;whiteSpace=wrap;connectable=0;fillColor=none;top=0;left=0;bottom=0;right=0;align=left;spacingLeft=6;overflow=hidden;" parent="whxNxYyjvuEntSVM27L4-179" vertex="1">
          <mxGeometry x="40" width="140" height="20" as="geometry" />
        </mxCell>
        <mxCell id="whxNxYyjvuEntSVM27L4-165" value="" style="edgeStyle=orthogonalEdgeStyle;rounded=0;orthogonalLoop=1;jettySize=auto;html=1;" parent="1" source="whxNxYyjvuEntSVM27L4-163" target="whxNxYyjvuEntSVM27L4-116" edge="1">
          <mxGeometry relative="1" as="geometry" />
        </mxCell>
        <mxCell id="whxNxYyjvuEntSVM27L4-163" value="&lt;br&gt;&lt;br&gt;&lt;h1 style=&quot;color: rgb(0 , 0 , 0) ; font-family: &amp;#34;helvetica&amp;#34; ; font-style: normal ; letter-spacing: normal ; text-indent: 0px ; text-transform: none ; word-spacing: 0px ; background-color: rgb(248 , 249 , 250) ; font-size: 15px&quot;&gt;&lt;font style=&quot;font-size: 15px&quot;&gt;&lt;span class=&quot;hcV4Re nkGKTb&quot; style=&quot;color: rgb(77 , 81 , 86) ; font-family: &amp;#34;arial&amp;#34; , sans-serif ; background-color: rgb(255 , 255 , 255)&quot;&gt;Telegram on smartphone&lt;/span&gt;&lt;/font&gt;&lt;/h1&gt;&lt;h1 style=&quot;color: rgb(0 , 0 , 0) ; font-family: &amp;#34;helvetica&amp;#34; ; font-style: normal ; letter-spacing: normal ; text-indent: 0px ; text-transform: none ; word-spacing: 0px ; background-color: rgb(248 , 249 , 250) ; font-size: 15px&quot;&gt;&lt;span style=&quot;color: rgb(77 , 81 , 86) ; font-family: &amp;#34;arial&amp;#34; , sans-serif ; font-weight: 400 ; background-color: rgb(255 , 255 , 255)&quot;&gt;отправка на сервер&lt;/span&gt;&lt;br&gt;&lt;/h1&gt;&lt;div&gt;&lt;span style=&quot;color: rgb(77 , 81 , 86) ; font-family: &amp;#34;arial&amp;#34; , sans-serif ; font-weight: 400 ; background-color: rgb(255 , 255 , 255)&quot;&gt;&lt;br&gt;&lt;/span&gt;&lt;/div&gt;" style="rounded=0;whiteSpace=wrap;html=1;align=left;" parent="1" vertex="1">
          <mxGeometry x="280" y="130" width="120" height="100" as="geometry" />
        </mxCell>
        <mxCell id="whxNxYyjvuEntSVM27L4-166" value="" style="edgeStyle=orthogonalEdgeStyle;rounded=0;orthogonalLoop=1;jettySize=auto;html=1;" parent="1" source="whxNxYyjvuEntSVM27L4-164" target="whxNxYyjvuEntSVM27L4-114" edge="1">
          <mxGeometry relative="1" as="geometry" />
        </mxCell>
        <mxCell id="whxNxYyjvuEntSVM27L4-164" value="&lt;br&gt;&lt;br&gt;&lt;h1 style=&quot;color: rgb(0 , 0 , 0) ; font-family: &amp;#34;helvetica&amp;#34; ; font-style: normal ; letter-spacing: normal ; text-indent: 0px ; text-transform: none ; word-spacing: 0px ; background-color: rgb(248 , 249 , 250) ; font-size: 15px&quot;&gt;&lt;font style=&quot;font-size: 15px&quot;&gt;&lt;span class=&quot;hcV4Re nkGKTb&quot; style=&quot;color: rgb(77 , 81 , 86) ; font-family: &amp;#34;arial&amp;#34; , sans-serif ; background-color: rgb(255 , 255 , 255)&quot;&gt;Telegram on PC&lt;/span&gt;&lt;br&gt;&lt;/font&gt;&lt;/h1&gt;&lt;div style=&quot;color: rgb(0 , 0 , 0) ; font-family: &amp;#34;helvetica&amp;#34; ; font-size: 12px ; font-style: normal ; font-weight: 400 ; letter-spacing: normal ; text-indent: 0px ; text-transform: none ; word-spacing: 0px ; background-color: rgb(248 , 249 , 250)&quot;&gt;&lt;font color=&quot;#4d5156&quot; face=&quot;arial, sans-serif&quot;&gt;&lt;span style=&quot;font-size: 15px ; background-color: rgb(255 , 255 , 255)&quot;&gt;отправка на сервер&lt;/span&gt;&lt;/font&gt;&lt;/div&gt;&lt;br class=&quot;Apple-interchange-newline&quot;&gt;&lt;br&gt;" style="rounded=0;whiteSpace=wrap;html=1;align=left;" parent="1" vertex="1">
          <mxGeometry x="480" y="140" width="120" height="90" as="geometry" />
        </mxCell>
        <mxCell id="whxNxYyjvuEntSVM27L4-171" value="Telegram" style="swimlane;fontStyle=0;childLayout=stackLayout;horizontal=1;startSize=26;fillColor=none;horizontalStack=0;resizeParent=1;resizeParentMax=0;resizeLast=0;collapsible=1;marginBottom=0;" parent="1" vertex="1">
          <mxGeometry x="270" y="6" width="450" height="78" as="geometry" />
        </mxCell>
        <mxCell id="whxNxYyjvuEntSVM27L4-173" value="Создать юзера user_id, f_name, l_name, password, Ceh, brigada" style="text;strokeColor=none;fillColor=none;align=left;verticalAlign=top;spacingLeft=4;spacingRight=4;overflow=hidden;rotatable=0;points=[[0,0.5],[1,0.5]];portConstraint=eastwest;" parent="whxNxYyjvuEntSVM27L4-171" vertex="1">
          <mxGeometry y="26" width="450" height="26" as="geometry" />
        </mxCell>
        <mxCell id="whxNxYyjvuEntSVM27L4-175" value="Создать простой, Изменить простой по id_prostoya" style="text;strokeColor=none;fillColor=none;align=left;verticalAlign=top;spacingLeft=4;spacingRight=4;overflow=hidden;rotatable=0;points=[[0,0.5],[1,0.5]];portConstraint=eastwest;" parent="whxNxYyjvuEntSVM27L4-171" vertex="1">
          <mxGeometry y="52" width="450" height="26" as="geometry" />
        </mxCell>
        <mxCell id="whxNxYyjvuEntSVM27L4-187" style="edgeStyle=orthogonalEdgeStyle;rounded=0;orthogonalLoop=1;jettySize=auto;html=1;entryX=0;entryY=0.75;entryDx=0;entryDy=0;" parent="1" source="whxNxYyjvuEntSVM27L4-175" target="whxNxYyjvuEntSVM27L4-163" edge="1">
          <mxGeometry relative="1" as="geometry" />
        </mxCell>
        <mxCell id="whxNxYyjvuEntSVM27L4-188" style="edgeStyle=orthogonalEdgeStyle;rounded=0;orthogonalLoop=1;jettySize=auto;html=1;entryX=1;entryY=0.75;entryDx=0;entryDy=0;" parent="1" source="whxNxYyjvuEntSVM27L4-175" target="whxNxYyjvuEntSVM27L4-164" edge="1">
          <mxGeometry relative="1" as="geometry" />
        </mxCell>
        <mxCell id="whxNxYyjvuEntSVM27L4-191" style="edgeStyle=orthogonalEdgeStyle;rounded=0;orthogonalLoop=1;jettySize=auto;html=1;" parent="1" source="whxNxYyjvuEntSVM27L4-190" edge="1">
          <mxGeometry relative="1" as="geometry">
            <mxPoint x="90" y="590" as="targetPoint" />
          </mxGeometry>
        </mxCell>
        <mxCell id="whxNxYyjvuEntSVM27L4-197" style="edgeStyle=orthogonalEdgeStyle;rounded=0;orthogonalLoop=1;jettySize=auto;html=1;entryX=0;entryY=0.75;entryDx=0;entryDy=0;" parent="1" source="whxNxYyjvuEntSVM27L4-190" target="whxNxYyjvuEntSVM27L4-195" edge="1">
          <mxGeometry relative="1" as="geometry" />
        </mxCell>
        <mxCell id="whxNxYyjvuEntSVM27L4-190" value="Pandas plots" style="rounded=0;whiteSpace=wrap;html=1;" parent="1" vertex="1">
          <mxGeometry x="30" y="620" width="120" height="60" as="geometry" />
        </mxCell>
        <mxCell id="whxNxYyjvuEntSVM27L4-196" style="edgeStyle=orthogonalEdgeStyle;rounded=0;orthogonalLoop=1;jettySize=auto;html=1;" parent="1" source="whxNxYyjvuEntSVM27L4-195" edge="1">
          <mxGeometry relative="1" as="geometry">
            <mxPoint x="530" y="355" as="targetPoint" />
          </mxGeometry>
        </mxCell>
        <mxCell id="whxNxYyjvuEntSVM27L4-195" value="&lt;br&gt;&lt;br&gt;&lt;h1 style=&quot;color: rgb(0 , 0 , 0) ; font-family: &amp;#34;helvetica&amp;#34; ; font-style: normal ; letter-spacing: normal ; text-align: left ; text-indent: 0px ; text-transform: none ; word-spacing: 0px ; background-color: rgb(248 , 249 , 250)&quot;&gt;&lt;span style=&quot;font-weight: normal&quot;&gt;PC программа для отправки данных на сервер с возможностями как в телеграм. Просмотр графиков и других данных.&lt;/span&gt;&lt;/h1&gt;&lt;br class=&quot;Apple-interchange-newline&quot;&gt;" style="whiteSpace=wrap;html=1;aspect=fixed;" parent="1" vertex="1">
          <mxGeometry x="570" y="255" width="255" height="255" as="geometry" />
        </mxCell>
        <mxCell id="whxNxYyjvuEntSVM27L4-199" style="edgeStyle=orthogonalEdgeStyle;rounded=0;orthogonalLoop=1;jettySize=auto;html=1;entryX=0;entryY=0.667;entryDx=0;entryDy=0;entryPerimeter=0;" parent="1" source="whxNxYyjvuEntSVM27L4-148" target="whxNxYyjvuEntSVM27L4-195" edge="1">
          <mxGeometry relative="1" as="geometry" />
        </mxCell>
      </root>
    </mxGraphModel>
  </diagram>
</mxfile>
